
<svg id="visual" viewBox="0 0 900 600" width="900" height="600" xmlns="http://www.w3.org/2000/svg" xmlns:xlink="http://www.w3.org/1999/xlink" version="1.1">
  <rect x="0" y="0" width="900" height="600" fill="#F5F2E9"></rect>
  <path d="M0 406L21.5 412C43 418 86 430 128.8 426.3C171.7 422.7 214.3 403.3 257.2 396.5C300 389.7 343 395.3 385.8 396.3C428.7 397.3 471.3 393.7 514.2 396.7C557 399.7 600 409.3 642.8 411.5C685.7 413.7 728.3 408.3 771.2 397.5C814 386.7 857 370.3 878.5 362.2L900 354L900 601L878.5 601C857 601 814 601 771.2 601C728.3 601 685.7 601 642.8 601C600 601 557 601 514.2 601C471.3 601 428.7 601 385.8 601C343 601 300 601 257.2 601C214.3 601 171.7 601 128.8 601C86 601 43 601 21.5 601L0 601Z" fill="#3b342b"></path><path d="M0 435L21.5 442.2C43 449.3 86 463.7 128.8 471C171.7 478.3 214.3 478.7 257.2 470.2C300 461.7 343 444.3 385.8 438C428.7 431.7 471.3 436.3 514.2 440.8C557 445.3 600 449.7 642.8 449.3C685.7 449 728.3 444 771.2 445.5C814 447 857 455 878.5 459L900 463L900 601L878.5 601C857 601 814 601 771.2 601C728.3 601 685.7 601 642.8 601C600 601 557 601 514.2 601C471.3 601 428.7 601 385.8 601C343 601 300 601 257.2 601C214.3 601 171.7 601 128.8 601C86 601 43 601 21.5 601L0 601Z" fill="#8c9489"></path><path d="M0 448L21.5 455.7C43 463.3 86 478.7 128.8 483C171.7 487.3 214.3 480.7 257.2 471.7C300 462.7 343 451.3 385.8 455C428.7 458.7 471.3 477.3 514.2 486.2C557 495 600 494 642.8 493.5C685.7 493 728.3 493 771.2 494.3C814 495.7 857 498.3 878.5 499.7L900 501L900 601L878.5 601C857 601 814 601 771.2 601C728.3 601 685.7 601 642.8 601C600 601 557 601 514.2 601C471.3 601 428.7 601 385.8 601C343 601 300 601 257.2 601C214.3 601 171.7 601 128.8 601C86 601 43 601 21.5 601L0 601Z" fill="#c2d4cd"></path><path d="M0 525L21.5 519C43 513 86 501 128.8 496C171.7 491 214.3 493 257.2 499.8C300 506.7 343 518.3 385.8 522.7C428.7 527 471.3 524 514.2 516C557 508 600 495 642.8 496.2C685.7 497.3 728.3 512.7 771.2 516.2C814 519.7 857 511.3 878.5 507.2L900 503L900 601L878.5 601C857 601 814 601 771.2 601C728.3 601 685.7 601 642.8 601C600 601 557 601 514.2 601C471.3 601 428.7 601 385.8 601C343 601 300 601 257.2 601C214.3 601 171.7 601 128.8 601C86 601 43 601 21.5 601L0 601Z" fill="#8c9489"></path><path d="M0 554L21.5 555.2C43 556.3 86 558.7 128.8 556.7C171.7 554.7 214.3 548.3 257.2 548.7C300 549 343 556 385.8 557.2C428.7 558.3 471.3 553.7 514.2 547.3C557 541 600 533 642.8 531.5C685.7 530 728.3 535 771.2 541.5C814 548 857 556 878.5 560L900 564L900 601L878.5 601C857 601 814 601 771.2 601C728.3 601 685.7 601 642.8 601C600 601 557 601 514.2 601C471.3 601 428.7 601 385.8 601C343 601 300 601 257.2 601C214.3 601 171.7 601 128.8 601C86 601 43 601 21.5 601L0 601Z" fill="#3b342b"></path></svg>
